HIERARCHY
ROOT pelvis
{
  OFFSET 0 100 0
  CHANNELS 6 Xposition Yposition Zposition Zrotation Xrotation Yrotation
  JOINT pelvis_right_femur
  {
    OFFSET -10.78128 -3.44521 -0.5502486
    CHANNELS 3 Zrotation Xrotation Yrotation
    JOINT right_femur_tibia
    {
      OFFSET -0.8047443 -44.0398 -0.1307829
      CHANNELS 3 Zrotation Xrotation Yrotation
      JOINT right_tibia_foot
      {
        OFFSET 3.006224 -47.83518 -5
        CHANNELS 3 Zrotation Xrotation Yrotation
        End Site
        {
          OFFSET 0 -5 15
        }
      }
    }
  }
  JOINT pelvis_left_femur
  {
    OFFSET 10.78128 -3.44521 -0.5502486
    CHANNELS 3 Zrotation Xrotation Yrotation
    JOINT left_femur_tibia
    {
      OFFSET 0.8047443 -44.0398 -0.1307829
      CHANNELS 3 Zrotation Xrotation Yrotation
      JOINT left_tibia_foot
      {
        OFFSET -4.370144 -48.10324 -4.275266
        CHANNELS 3 Zrotation Xrotation Yrotation
        End Site
        {
          OFFSET 0 -5 15
        }
      }
    }
  }
  JOINT pelvis_spine1
  {
    OFFSET 0 6.468898 -3.129235
    CHANNELS 3 Zrotation Xrotation Yrotation
    JOINT spine1
    {
      OFFSET 0 23.15396 4.99043
      CHANNELS 3 Zrotation Xrotation Yrotation
      JOINT spine2
      {
        OFFSET 0 20.79997 -5.064912
        CHANNELS 3 Zrotation Xrotation Yrotation
        JOINT neck
        {
          OFFSET 0 14.38658 9.616178
          CHANNELS 3 Zrotation Xrotation Yrotation
          End Site
          {
            OFFSET 0 20 0
          }
        }
      }
      JOINT right_manubrium
      {
        OFFSET -5.722621 16.35077 3.967754
        CHANNELS 3 Zrotation Xrotation Yrotation
        JOINT right_clavicle
        {
          OFFSET -13.16364 1.694482 -4.693211
          CHANNELS 3 Zrotation Xrotation Yrotation
          JOINT right_humerus
          {
            OFFSET -28.5034 -0.3100689 -2.792744
            CHANNELS 3 Zrotation Xrotation Yrotation
            JOINT right_radius
            {
              OFFSET -25.15693 0.02248979 -1.271978
              CHANNELS 3 Zrotation Xrotation Yrotation
              End Site
              {
                OFFSET -15 0 0
              }
            }
          }
        }
      }
      JOINT left_manubrium
      {
        OFFSET 5.722621 16.35077 3.967754
        CHANNELS 3 Zrotation Xrotation Yrotation
        JOINT left_clavicle
        {
          OFFSET 13.16364 1.694482 -4.693211
          CHANNELS 3 Zrotation Xrotation Yrotation
          JOINT left_humerus
          {
            OFFSET 29.39168 -1.063119 -2.237045
            CHANNELS 3 Zrotation Xrotation Yrotation
            JOINT left_radius
            {
              OFFSET 24.59957 -0.9528479 0.9047498
              CHANNELS 3 Zrotation Xrotation Yrotation
              End Site
              {
                OFFSET 15 -0 -0
              }
            }
          }
        }
      }
    }
  }
}
MOTION
Frames: 19
Frame Time: 0.0416666666667
0 103.5113 0 0.4783106 -1.200642 0.04962601 3.594583 -15.74864 9.707377 -0 42.38083 -0 -9.311844 -13.03684 -2.574839 -6.686327 10.80006 -23.22403 -0 6.557724 -0 9.373001 -16.86624 27.43628 -3.006364 -4.15888 4.542298 2.106942 10.01344 -7.470706 1.566989 22.62472 6.08196 2.904702 -25.84556 9.194171 5.735095 -20.598 11.25771 86.53996 33.75545 -19.01479 -0 0 15.47835 -6.025623 6.331401 3.765623 5.724002 -20.16713 -1.575287 -95.06219 26.16742 23.45277 0 0 -13.30553 10.73802 18.99024 2.703976
0.1870312 103.7885 1.596417 0.2560377 -0.717251 0.08900537 4.069756 -17.00467 9.891317 -0 41.27948 -0 -8.922379 -12.82988 -2.723278 -6.586864 10.94744 -22.95515 -0 6.458727 -0 8.89424 -17.5275 27.14669 -2.898082 -4.078286 4.605897 2.217543 9.92987 -7.662028 1.554449 22.38766 6.150242 2.940565 -26.10051 9.231899 5.741732 -20.57428 11.22734 86.64039 33.91589 -19.45725 -0 0 15.54312 -5.821104 6.456395 3.619624 5.884753 -20.3628 -1.414383 -95.31532 26.86333 23.75781 0 0 -14.1923 9.916767 18.86553 3.877698
0.4440255 103.5393 4.197037 -0.9058568 0.6587907 0.2511868 5.376567 -25.35297 7.736559 -0 32.42883 -0 -6.920942 -7.452795 -2.624053 -5.702053 11.83192 -19.55686 -0 6.064043 -0 5.7197 -20.46708 23.6098 -2.168302 -2.554869 4.198577 2.474657 10.00503 -8.173017 1.500308 21.22023 7.151808 3.46382 -26.20896 9.681013 5.174481 -19.61806 11.26247 87.35795 33.63031 -20.59481 -0 0 14.34169 -9.392436 9.169922 5.186832 7.057776 -21.88052 -1.59223 -92.99984 26.24745 20.89749 0 0 -19.20274 8.782217 16.77965 5.506016
0.6903571 103.153 7.152424 -1.460543 2.468751 0.4951949 6.772158 -29.6667 8.109203 -0 26.99587 -0 -6.199339 -6.681817 -2.61626 -5.497037 12.50167 -18.82708 -0 6.855556 -0 4.342784 -22.05273 22.16984 -1.945621 -2.139254 4.234381 2.85385 9.611621 -8.575936 1.515758 20.41002 7.449391 3.711862 -26.86872 9.908866 5.489955 -19.10218 11.15106 87.38154 34.91317 -21.69959 -0 0 14.00299 -8.740537 9.824231 4.88888 7.557942 -22.27836 -1.0399 -92.96056 27.41012 20.79013 0 0 -21.7154 7.656173 16.00206 7.240387
0.9398657 102.5024 10.63349 -1.715562 3.281377 0.7899816 7.134471 -32.80244 6.940307 -0 21.47637 -0 -6.093088 -4.671426 -2.128383 -5.347087 13.26583 -17.55998 -0 8.092944 -0 2.924751 -22.95859 20.17319 -1.796115 -1.541433 3.959022 3.031085 9.4733 -8.698067 1.464555 19.9557 7.804067 3.985361 -26.90101 9.980912 5.414316 -18.41283 11.13127 87.6634 35.23307 -22.30424 -0 0 12.90123 -9.6225 10.5727 5.381861 7.934175 -22.79846 -1.099786 -91.66355 26.89568 19.10436 0 0 -23.78967 7.752226 15.04388 6.961093
1.181526 101.6466 14.63274 -1.752234 3.496168 1.140535 6.921073 -34.44672 5.427142 -0 16.83565 -0 -6.299072 -2.77008 -1.701902 -5.276515 14.0339 -16.27335 -0 9.610672 -0 1.276592 -23.54176 18.12837 -1.668965 -1.070728 3.669519 3.048168 9.364829 -8.707487 1.400645 19.78877 8.020111 4.149835 -26.62981 9.903346 5.116251 -17.78613 11.07212 88.16963 34.91018 -22.85337 -0 0 11.70521 -10.71706 11.07011 5.900408 8.152747 -23.29349 -1.379834 -90.38292 26.38698 17.37817 0 0 -25.3494 7.649182 14.34047 6.794196
1.408932 100.5611 19.20742 -1.483217 2.833929 1.534222 5.853218 -34.6013 3.046847 -0 12.84759 -0 -6.64189 -0.6220454 -1.357767 -5.305626 14.93012 -14.55728 -0 11.18635 -0 -0.2412498 -23.59241 16.00036 -1.605031 -0.7338726 3.302041 2.902153 9.450355 -8.64181 1.278628 19.94145 8.121734 4.16218 -25.89023 9.61635 4.368919 -17.22533 11.05643 89.10018 33.49282 -23.32634 -0 0 10.14427 -12.7969 11.47828 6.818988 8.210176 -23.94983 -2.102612 -88.50632 25.03646 14.85538 0 0 -26.78522 7.847758 13.63725 5.951234
1.614449 99.32968 24.37756 -1.021106 1.752901 1.99089 4.582528 -33.55022 0.7922937 -0 9.661783 -0 -6.765579 1.176368 -1.400708 -5.41327 15.86294 -12.67853 -0 12.93961 -0 -1.500652 -23.17225 14.11396 -1.577371 -0.6574209 3.011091 2.686781 9.620095 -8.60651 1.146478 20.23504 8.054913 3.99239 -24.94372 9.202146 3.381533 -16.79695 11.04927 90.34423 31.49685 -23.91289 -0 0 8.555003 -15.1109 11.79456 7.787185 8.118847 -24.61925 -2.960548 -86.61334 23.49735 12.29297 0 0 -28.17757 7.873047 12.90625 5.275392
1.792581 98.0705 30.16236 -0.4782302 0.5004234 2.494646 3.548928 -31.57769 -0.8429208 -0 7.489508 -0 -6.521473 2.560302 -1.887302 -5.545708 16.79535 -10.74895 -0 15.21637 -0 -2.290853 -22.0925 12.62792 -1.528055 -0.9244695 2.836558 2.476249 9.911425 -8.667848 1.005902 20.53397 7.821847 3.657365 -23.97526 8.689966 2.25781 -16.5516 11.08404 91.84126 29.16332 -24.68217 -0 0 7.050073 -17.37333 12.04393 8.701449 7.881889 -25.24697 -3.824453 -84.88034 21.79071 10.02242 0 0 -29.64206 7.774287 12.05051 4.800044
1.939371 96.99465 36.54819 -0.1183934 -0.4863392 2.987839 3.321084 -29.20884 -1.160474 -0 6.710843 -0 -5.854295 3.404715 -2.803619 -5.525685 17.49873 -9.121588 -0 18.76705 -0 -2.724558 -20.10104 11.62163 -1.293355 -1.547696 2.830187 2.345315 10.31187 -8.855121 0.8826287 20.63365 7.477113 3.235997 -23.26391 8.177392 1.316198 -16.51628 11.18584 93.33666 27.11754 -25.67712 -0 0 5.925033 -19.00818 12.3565 9.367198 7.515038 -25.6585 -4.433008 -83.72175 20.37733 8.799536 0 0 -31.05633 7.362912 11.06233 5.009689
2.057741 96.40082 43.44342 -0.3205674 -0.7694628 3.355632 4.332798 -27.06672 0.1940818 -0 7.761575 -0 -5.05529 3.7772 -3.779268 -5.070599 17.47517 -8.2338 -0 24.80052 -0 -3.175826 -16.78065 10.94807 -0.6070587 -2.394673 3.001847 2.33641 10.8497 -9.132744 0.7722568 20.3392 7.191237 2.90902 -23.10148 7.783836 1.019128 -16.692 11.42817 94.43283 26.20616 -26.84223 -0 0 5.499687 -19.58655 12.95029 9.710981 7.010862 -25.69106 -4.571497 -83.55306 19.68368 9.481345 0 0 -32.09621 6.579503 10.05539 6.256112
2.179138 96.60103 50.62092 -1.322715 -0.1001546 3.499749 6.552412 -25.45351 2.92247 -0 10.51696 -0 -4.602793 3.722318 -4.169282 -4.015509 15.77478 -8.309644 -0 34.35796 -0 -4.148531 -11.91502 10.27121 0.6627725 -3.059963 3.364896 2.429984 11.53247 -9.384703 0.6383206 19.58659 7.235332 2.920953 -23.56484 7.637444 1.92649 -16.99236 11.9245 94.63018 27.48625 -27.9186 -0 0 6.037586 -19.19354 14.16445 9.949649 6.293101 -25.25785 -4.194286 -84.64106 19.99567 12.56958 0 0 -32.25678 5.381133 9.152857 8.783472
2.387941 97.70128 57.73111 -2.61859 1.099325 3.41332 8.783608 -23.45987 5.529411 -0 13.44506 -0 -4.677017 2.872399 -3.512996 -2.85486 11.38539 -8.731669 -0 46.55981 -0 -5.511043 -6.362805 9.432823 1.983844 -3.016217 4.017477 2.54706 12.25962 -9.464435 0.4246532 18.72503 7.712049 3.340328 -24.22908 7.710977 4.076231 -17.2571 12.69126 93.69843 31.24043 -28.34087 -0 0 7.375034 -18.73606 16.01754 10.52396 5.27878 -24.54256 -3.596717 -86.58655 21.05168 17.08576 0 0 -31.23512 3.943709 8.322836 12.04696
2.755868 99.38421 64.45668 -2.935168 1.677794 3.083702 9.082282 -19.21875 6.217855 -0 14.27556 -0 -4.697609 0.4848126 -2.3017 -2.505294 4.479047 -8.492763 -0 57.23763 -0 -6.372914 -2.534648 8.899541 2.186988 -2.163156 5.128968 2.553257 12.69857 -9.188045 0.1903631 18.50327 8.212604 3.837141 -24.30352 7.731503 6.344853 -17.36685 13.38116 91.84492 35.72539 -27.35159 -0 0 8.897179 -19.036 17.6368 11.38909 4.25122 -23.8514 -3.119675 -88.32125 22.31421 20.58528 0 0 -29.18435 2.724737 7.598556 14.50362
3.214728 101.0483 70.65676 -1.843821 0.8907457 2.559138 7.420336 -12.45556 5.304232 -0 12.80076 -0 -4.422741 -3.345529 -1.366684 -2.809737 -3.414179 -7.783755 -0 62.15489 -0 -6.568399 -2.001749 9.386972 1.068682 -0.9841098 6.529437 2.215355 12.52122 -8.255252 0.1715664 19.29009 8.239015 4.094993 -23.41594 7.557663 7.348124 -17.38139 13.51649 89.24164 38.36172 -24.41806 -0 0 10.37478 -19.68225 18.01215 11.80507 3.853303 -23.07638 -2.700076 -89.51354 23.33517 21.95687 0 0 -26.3006 2.191504 7.574715 14.8785
3.64436 102.1767 76.35842 -0.3978637 -0.7413052 2.042063 5.620193 -5.165465 4.433378 -0 10.64059 -0 -4.214744 -7.561197 -0.8373507 -2.636466 -11.13322 -7.154068 -0 60.82365 -0 -6.704877 -3.346073 10.92831 -0.1756516 0.09442213 7.670654 1.449984 11.87534 -6.699166 0.4542654 20.52469 7.859283 4.107924 -21.95866 7.381271 6.958406 -17.56211 13.18856 86.18331 38.50931 -19.98175 -0 0 12.24545 -20.3678 17.47651 11.81754 4.17932 -21.93987 -2.240509 -90.58964 23.78488 22.37319 0 0 -23.12293 2.228843 8.372468 13.81579
4.024243 102.4978 81.71087 0.4913023 -2.319858 1.576044 4.667976 1.195415 4.131215 -0 8.589182 -0 -3.842144 -11.31118 -0.5177554 -1.400137 -18.23933 -6.140545 -0 54.87099 -0 -6.791604 -4.647521 12.96719 -0.7565778 0.8836796 8.320154 0.5310643 11.2194 -5.110406 0.8288708 21.45312 7.365998 3.850048 -20.60348 7.327368 5.79558 -18.23118 12.84054 83.41981 37.08736 -15.34687 -0 0 14.70209 -21.61579 16.9955 12.26707 4.674582 -20.65668 -1.909409 -91.49396 23.73509 22.92345 0 0 -20.75745 2.200144 9.164408 12.98839
4.393596 101.9755 86.93099 0.654592 -3.397864 1.064672 4.532677 6.404131 4.183207 -0 6.89828 -0 -2.943701 -14.3114 -0.3178561 0.7426045 -24.13438 -4.240145 -0 45.78288 -0 -6.483413 -5.35309 15.00807 -0.7243773 1.250936 8.585743 -0.2085489 10.8308 -4.029565 1.099875 21.76957 6.862058 3.258926 -19.78089 7.355672 4.311318 -19.52554 12.64863 81.48714 34.92069 -11.48498 -0 0 17.52377 -23.5635 16.95415 13.49016 4.881474 -19.58768 -1.793202 -92.00611 23.49933 23.89368 0 0 -19.76103 1.649513 9.354253 13.31199
4.806805 100.8092 92.25626 0.2610394 -3.7846 0.4473039 4.830216 10.52423 4.332661 -0 6.167871 -0 -1.640024 -16.65113 -0.1730312 3.088352 -28.04942 -1.832389 -0 34.99482 -0 -5.675762 -5.671018 16.65285 -0.4103254 1.128183 8.617963 -0.551233 10.65607 -3.66985 1.182841 21.53574 6.376023 2.434662 -19.61517 7.377745 2.881536 -21.24769 12.49586 80.32387 32.68252 -8.672677 -0 0 20.36013 -25.5796 17.09307 15.13859 4.682299 -18.82051 -1.740532 -92.23249 23.36247 25.28281 0 0 -19.59313 0.6306363 8.899953 14.62798
